<svg version="1.2" xmlns="http://www.w3.org/2000/svg" viewBox="0 0 250 250" width="250" height="250">
	<title>man-svg</title>
	<defs>
		<clipPath clipPathUnits="userSpaceOnUse" id="cp1">
			<path d="m97.57 112.07h2.27v1.7h-2.27z"/>
		</clipPath>
		<clipPath clipPathUnits="userSpaceOnUse" id="cp2">
			<path d="m91.11 120.42h1.52v1.71h-1.52z"/>
		</clipPath>
		<clipPath clipPathUnits="userSpaceOnUse" id="cp3">
			<path d="m198.38 89.18h1.38v1.55h-1.38z"/>
		</clipPath>
		<clipPath clipPathUnits="userSpaceOnUse" id="cp4">
			<path d="m195 80.81h1.41v1.59h-1.41z"/>
		</clipPath>
		<clipPath clipPathUnits="userSpaceOnUse" id="cp5">
			<path d="m216.61 224.33h1.46v1.64h-1.46z"/>
		</clipPath>
		<clipPath clipPathUnits="userSpaceOnUse" id="cp6">
			<path d="m223.4 231.71h1.34v1.5h-1.34z"/>
		</clipPath>
		<clipPath clipPathUnits="userSpaceOnUse" id="cp7">
			<path d="m221.15 219.37h0.07v0.08h-0.07z"/>
		</clipPath>
	</defs>
	<style>
		.s0 { fill: #ffccc3 } 
		.s1 { fill: #ffffff } 
		.s2 { fill: #00cef1 } 
		.s3 { fill: #004b7f } 
		.s4 { fill: #d46c6c } 
		.s5 { fill: #a04340 } 
		.s6 { fill: #ffb0a0 } 
		.s7 { fill: #006696 } 
		.s8 { fill: #303030 } 
	</style>
	<g id="layer1">
		<g id="g210">
			<path id="path212" class="s0" d="m109.1 180.9c0 0-51.5-1.2-81.9-81.1l-9.1 1.9c0 0 10.1 94.2 85.8 121.1z"/>
		</g>
		<g id="g214">
			<path id="path216" class="s0" d="m34.4 101.1c-5.6 3.4-12.5-6.8-8.3-11.5 5-5.3 5 4.7 9.2 2.3 4.1-2.3 0.2-10-2.8-11.2-4.9-1.9-5.5-1.6-8.8 1.6-0.6-9.1-4-21.8-7.1-16.8-2.4 3.9 1.2 14.4 2.2 19.1-1-1.9-5.8-13.9-8.8-10.5-1.9 2.7 4.5 15.6 5.5 17.5q0 0 0 0.1c-0.8-0.7-1.5-1.2-1.8-1.5-2.4-1.5-7.5-6.7-7.8-1.6-0.1 5.1 8.2 10.2 12.2 13.1 0.6 2.1 1.4 3.9 3 4.7 4.8-4 5.7 0.5 10.5 1.9 4 1.5 7.3-0.1 8.5-4.5 2.2-9.9-9.4-12.6-5.7-2.7z"/>
		</g>
		<g id="g218">
			<path id="path220" class="s1" d="m196.7 155.2c3.3 1.2 27.6 49 41.3 95l-149.7-1.5c0 0 6.2-46.9 25.5-83.7z"/>
		</g>
		<g id="g222">
			<path id="path224" class="s2" d="m217 193.7q-1.5-3.3-2.9-6.4c-17.6 0.1-35.2 0.2-52.8-0.4-18.5-0.7-37.1-3.1-55.7-4q-1.1 2.9-2.2 5.8c18.5 3.2 37.8 3.6 56.2 4.4 19.1 0.9 38.3 1.4 57.4 0.6z"/>
		</g>
		<g id="g226">
			<path id="path228" class="s2" d="m227.2 218.6q-1-2.6-2-5.1-31.9 0-63.7-1.6c-14.2-0.7-28.4-1.6-42.5-2.7-6.9-0.6-14.3-1.8-21.6-2.2q-0.7 2.5-1.4 5.1c43.8 3.3 87.3 6.3 131.2 6.5z"/>
		</g>
		<g id="g230">
			<path id="path232" class="s2" d="m164.4 231.2c-24.3 0.7-49 0.4-73.3 1.8q-0.6 2.8-1.1 5.2c24.8 0.2 49.7-1.4 74.4-2.1 22.9-0.6 45.8-1.3 68.8-1.1q-0.9-2.4-1.7-4.8c-22.4-0.3-44.8 0.4-67.1 1z"/>
		</g>
		<g id="g234">
			<path id="path236" class="s3" d="m205.6 13.7c3.3-3.9 9.2-5.3 13-2.2 2.5 2 3.9 5.5 6.6 7.2 2.3 1.5 5.2 1.3 7.6 2.4 3.6 1.6 5.9 6 5.1 10-0.7 2.9-2.7 5.3-5.1 6.6-2.4 1.4-5.2 1.8-7.9 1.8-7.1 0.1-13.5-3.6-19.2-8.3-5.3-4.4-4.4-12.4-0.1-17.5z"/>
		</g>
		<g id="g238">
			<path id="path240" class="s2" d="m196.7 26.2c0 0 3.9-5.6 6.3-4.7 2.3 1 7.9 11.9 7.9 13.3 0 2.8-5.2 4.7-5.2 4.7z"/>
		</g>
		<g id="g242">
			<path id="path244" class="s0" d="m122.2 94c0 0-18-17.7-24.5-10.7-6.4 6.9 6.3 20.9 24.5 15.4z"/>
		</g>
		<g id="g246">
			<path id="path248" class="s3" d="m115.1 60.2c0 0 3.2-38.5 54.5-43.5 51.4-5 51.9 74.1 51.9 74.1 0 0-1.4 32.8-22 34.7l-38.5-59z"/>
		</g>
		<g id="g250">
			<path id="path252" class="s0" d="m111.3 103.3c0 0-9.8-72 42.3-68.4 52.1 3.6 52.1 54.6 52.1 54.6 0 0-39.6 58.6-94.4 13.8z"/>
		</g>
		<g id="g254">
			<path id="path256" class="s0" d="m205.7 94c0 0 18.1-17.7 24.5-10.7 6.4 6.9-6.3 20.9-24.5 15.4z"/>
		</g>
		<g id="g258">
			<path id="path260" class="s3" d="m111.3 103.3c0 0 14.6 12.9 31 7.9 16.4-5.1 33.8 16.9 63.4-21.7h5.2c0 0 2.3 106.7-50.6 121.4-53 14.6-99.7-12.8-62.2-69.1 0 0 13.5-15.4 13.2-38.5z"/>
		</g>
		<g id="g262">
			<path id="path264" class="s3" d="m126.4 42.6c3-1.7 6.6-1.3 9.8-0.2 3.2 1.1 6.1 2.9 9.2 4.2 6.5 2.7 13.7 3.3 20.4 1.6 4.5-1.2 8.8-3.3 13.4-3.2 4 0.1 7.8 2 11.5 3.8q6.1 3 12.3 6c-6.8-11.1-17.1-19.7-28.7-23.9-11.7-4.3-24.6-4.2-36.2 0.2-4.9 1.8-9.7 4.6-12.6 9.1"/>
		</g>
		<g id="g266">
			<path id="path268" class="s0" d="m148.4 110.6v-27.1l-6.4 14.8-2.5 8.3 0.4 7.4 2.5 2.1 3.2-1.6z"/>
		</g>
		<g id="g270">
			<path id="path272" class="s4" d="m150.4 80.5c-2.1 4.5-4 9-5.7 13.7-1.2 3.4-3 6.6-4 10.1-1 3.2-1.5 8.2 1.7 10.2 0.2 0.1 0.4 0.2 0.6 0.2 0.2 0 1.3-0.5 1.5-0.6 1.3-1.1 2.2-2.6 3.4-3.8 0.4-0.3 0.9-0.6 1.2-0.2 0.1 0.3 0 0.6-0.1 0.8-0.9 1.8-2.1 3.5-3.6 4.7-1 0.9-2.2 1.6-3.5 1.4-1.3-0.2-2.3-1.4-2.8-2.6-1.8-4.8 0.4-10.2 1.8-14.7 2.2-6.9 5.3-13.3 8.3-19.8 0.4-0.7 1.5-0.2 1.2 0.6z"/>
		</g>
		<g id="g282">
			<path id="path284" class="s3" d="m172.2 77.6c-1.6-0.6-3-1.3-4.5-2.1-1.4-0.8-3.2-1.4-3.4-3.2-0.1-0.8 0.1-1.8 0.9-2.1 1.8-0.7 2.9 0.2 4.5 1.3 1.5 1 2.8 2 4.2 3.2 1.2 1.2-0.2 3.4-1.7 2.9z"/>
		</g>
		<g id="g286">
			<path id="path288" class="s3" d="m134.9 70.6c2.1-0.6 4.4-1 6.7-0.7 2.2 0.3 2.3 4.3 0 4.7-2.3 0.3-4.5 0-6.7-0.6-1.7-0.4-1.7-2.9 0-3.4z"/>
		</g>
		<g id="g290">
			<path id="path292" class="s5" d="m155.4 133.6c2.8-1.7 4.8-4.9 4.9-8.2 0-0.5 0-1-0.2-1.5-0.5-1.4-2.3-1.9-3.8-1.7-1.4 0.2-2.8 1-4.2 1.4-1.7 0.5-3.5 0.5-5.2 0-1-0.3-1.9-0.7-2.9-0.9-1-0.2-2.2-0.1-2.9 0.7-0.7 0.7-0.9 1.8-0.8 2.8 0.3 8.4 8.8 11.2 15.1 7.4z"/>
		</g>
		<g id="g294">
			<path id="path296" class="s6" d="m174.1 100.6c-0.2 1.7-3 2.6-6.1 2-3.2-0.5-5.5-2.3-5.3-3.9 0.3-1.7 4.4-2.3 7.6-1.8 3.1 0.5 4 2.1 3.8 3.7z"/>
		</g>
		<g id="g298">
			<path id="path300" class="s6" d="m123.3 99c0.2-1.7 2.9-2.6 6.1-2.1 3.1 0.5 5.5 2.2 5.3 3.9-0.3 1.6-4.4 2.3-7.6 1.8-3.1-0.5-4-2-3.8-3.6z"/>
		</g>
		<g id="g302">
			<path id="path304" class="s7" d="m137.2 39.6c4.2-4 8-8.6 12.8-11.7 5.2-3.4 11.1-4.4 16.8-6.2 0.3-0.1 0.2-0.5-0.1-0.5-12.7 2.1-21.1 8.2-30 17.8-0.3 0.4 0.2 0.9 0.5 0.6z"/>
		</g>
		<g id="g306">
			<path id="path308" class="s7" d="m149.7 41.1c10.7-10.7 22.5-16.2 36.6-19.3 0.2-0.1 0.1-0.4-0.1-0.4-13.9 0.6-27.4 8.4-36.9 19.3-0.3 0.3 0.1 0.7 0.4 0.4z"/>
		</g>
		<g id="g310">
			<path id="path312" class="s7" d="m164.5 45.3c9.3-7.9 19.2-12.1 30.3-16.2 0.3-0.1 0.2-0.6-0.1-0.5-11.3 1.9-21.9 8.5-30.6 16.2-0.3 0.3 0.1 0.8 0.4 0.5z"/>
		</g>
		<g id="g314">
			<path id="path316" class="s7" d="m187.2 43.8c4.4-2.3 9.7-5.7 12.5-10.1 0.2-0.4-0.3-0.9-0.6-0.7-1.9 1.7-3.6 3.7-5.5 5.3-2.1 1.8-4.4 3.3-6.8 4.7-0.5 0.2 0 1 0.4 0.8z"/>
		</g>
		<g id="g318">
			<path id="path320" class="s7" d="m199.9 52.7c3.3-2.2 6.9-6.2 7.4-10.6 0-0.4-0.5-0.5-0.7-0.2-0.9 1.8-1.5 3.6-2.5 5.3q-1.9 2.9-4.6 4.9c-0.4 0.2 0 0.9 0.4 0.6z"/>
		</g>
		<g id="g322">
			<path id="path324" class="s7" d="m206 64.9c2.5-3.1 5.6-7.2 6.4-11.3 0-0.4-0.4-0.6-0.6-0.3-1.1 1.7-1.7 3.7-2.7 5.5q-1.6 2.9-3.6 5.5c-0.4 0.4 0.2 1 0.5 0.6z"/>
		</g>
		<g id="g326">
			<path id="path328" class="s7" d="m212.5 79.2c2-3 3.8-6.8 4-10.7 0.1-0.4-0.5-0.4-0.6-0.1-0.9 3.8-1.9 7.2-4 10.5-0.3 0.4 0.3 0.7 0.6 0.3z"/>
		</g>
		<g id="g330">
			<path id="path332" class="s7" d="m115 119.5q-0.1 1.4-0.1 2.8c0 0.9-0.1 1.8 0.1 2.6 0.1 0.4 0.7 0.4 0.8 0 0.2-0.8 0.1-1.7 0.1-2.6q0-1.4-0.1-2.8c0-0.6-0.8-0.6-0.8 0z"/>
		</g>
		<g id="g334">
			<path id="path336" class="s7" d="m114.9 135.8c-0.1 1.9-0.8 3.4-1.4 5.1-0.2 0.4 0.3 0.6 0.5 0.4 1.3-1.4 1.8-3.6 1.9-5.5 0-0.7-0.9-0.7-1 0z"/>
		</g>
		<g id="g338">
			<path id="path340" class="s7" d="m124.4 137.5c0 1.6-0.5 3.5-0.1 5 0.1 0.4 0.7 0.4 0.8 0 0.4-1.5 0-3.4-0.1-5 0-0.4-0.5-0.4-0.6 0z"/>
		</g>
		<g id="g342">
			<path id="path344" class="s7" d="m154.1 144.1c0.2 1.2 0.2 2.6 0.8 3.7 0.1 0.2 0.5 0.2 0.6-0.1 0.2-1.2-0.2-2.5-0.4-3.7-0.1-0.6-1-0.5-1 0.1z"/>
		</g>
		<g id="g346">
			<path id="path348" class="s7" d="m164.8 138.8c0 0.9-0.2 1.9 0.1 2.8 0.1 0.3 0.5 0.3 0.6 0 0.3-0.9 0.1-1.9 0.1-2.8 0-0.5-0.8-0.5-0.8 0z"/>
		</g>
		<g id="g350">
			<path id="path352" class="s7" d="m168.8 123.6c0.3 1.2 0.6 2.4 1.1 3.5 0.1 0.3 0.6 0.2 0.5-0.1 0-1.3-0.3-2.5-0.6-3.7-0.1-0.8-1.2-0.4-1 0.3z"/>
		</g>
		<g id="g354">
			<path id="path356" class="s7" d="m181.3 125.9c-0.6 1.7-1 4.1-0.3 5.7 0.2 0.5 0.8 0.4 0.9-0.1 0.2-0.8 0.1-1.7 0.1-2.6 0-0.9 0.2-1.9 0.3-2.8 0.1-0.7-0.8-0.7-1-0.2z"/>
		</g>
		<g id="g358">
			<path id="path360" class="s7" d="m191.9 120.8c0 1.7-0.1 3.8 0.5 5.4 0.1 0.4 0.7 0.5 0.8 0 0.4-1.7 0-3.7-0.2-5.4-0.1-0.8-1.2-0.8-1.1 0z"/>
		</g>
		<g id="g362">
			<path id="path364" class="s7" d="m202.9 109.6c0.5 0.7 1 1.5 1.2 2.5 0.2 0.9 0.1 1.8 0.3 2.7 0.1 0.4 0.6 0.4 0.8 0.1 1.3-1.9 0-4.9-1.5-6.2-0.5-0.3-1.1 0.4-0.8 0.9z"/>
		</g>
		<g id="g366">
			<path id="path368" class="s7" d="m102.8 148.5q-1.1 1.4-1.7 3.1c-0.3 1-0.8 2.3-0.3 3.3 0.2 0.4 0.6 0.4 0.8 0 0.5-0.7 0.4-1.7 0.7-2.6q0.4-1.6 1.4-2.9c0.5-0.6-0.4-1.6-0.9-0.9z"/>
		</g>
		<g id="g370">
			<path id="path372" class="s7" d="m125.5 120.8q-0.4 1-0.9 2c-0.3 0.5-0.7 1-0.8 1.6-0.1 0.5 0.4 1.1 0.9 0.7 1.1-0.7 1.6-2.6 2-3.9 0.3-0.9-0.9-1.2-1.2-0.4z"/>
		</g>
		<g id="g374">
			<path id="path376" class="s7" d="m153.8 115.6c-0.1 0.9-0.4 1.9-0.1 2.8 0.1 0.4 0.8 0.6 1 0.1 0.4-0.8 0.3-2 0.3-2.9 0-0.9-1.2-0.8-1.2 0z"/>
		</g>
		<g id="g378">
			<path id="path380" class="s7" d="m160.8 116.5c0 0.8-0.1 1.7 0.2 2.6 0.2 0.4 0.8 0.4 1 0 0.3-0.9 0.2-1.8 0.2-2.6 0-1-1.4-1-1.4 0z"/>
		</g>
		<g id="g382">
			<path id="path384" class="s7" d="m137.3 117.4c-0.6 0.7-1.5 1.6-1.4 2.7 0.1 0.2 0.4 0.5 0.6 0.4 0.8-0.4 1.2-1.4 1.7-2.1 0.5-0.7-0.3-1.6-0.9-1z"/>
		</g>
		<g id="g386">
			<path id="path388" class="s7" d="m133 127.5c-0.4 0.9-1.2 1.8-1 2.8 0.1 0.2 0.3 0.4 0.5 0.3 0.9-0.4 1.2-1.6 1.6-2.4 0.3-0.8-0.7-1.4-1.1-0.7z"/>
		</g>
		<g id="g390">
			<path id="path392" class="s7" d="m147 118.6c-0.2 0.5-0.3 0.9-0.4 1.4-0.1 0.4 0 0.6 0.3 0.8 0.2 0.1 0.3 0.1 0.5 0.1 0.2-0.1 0.4-0.3 0.4-0.5 0.2-0.5 0.3-1 0.2-1.5 0-0.5-0.7-0.8-1-0.3z"/>
		</g>
		<g id="g394">
			<path id="path396" class="s7" d="m116 150.7c-0.4 0.7-0.8 1.4-1 2.1-0.1 0.5 0.4 0.8 0.8 0.5 0.5-0.5 1-1.2 1.4-1.9 0.5-0.8-0.8-1.6-1.2-0.7z"/>
		</g>
		<g id="g398">
			<path id="path400" class="s7" d="m131.8 150.6c-0.5 1.1-1.5 2.3-1.4 3.6 0 0.3 0.2 0.5 0.5 0.3 1-0.6 1.4-2.2 1.9-3.3 0.3-0.7-0.6-1.3-1-0.6z"/>
		</g>
		<g id="g402">
			<path id="path404" class="s7" d="m145.8 152.3q-0.1 1.1-0.4 2.3c-0.2 0.5-0.5 1-0.3 1.6 0 0.1 0.2 0.3 0.3 0.2 1.2-0.5 1.3-2.9 1.4-4.1 0.1-0.7-0.9-0.7-1 0z"/>
		</g>
		<g id="g406">
			<path id="path408" class="s7" d="m138.9 140.5c-0.1 1.2-0.5 2.2-0.5 3.4-0.1 0.4 0.5 0.5 0.7 0.2 0.6-1 0.7-2.4 0.8-3.6 0-0.7-1-0.7-1 0z"/>
		</g>
		<g id="g410">
			<path id="path412" class="s7" d="m173.9 142.4c-0.4 1-0.9 2.4-0.5 3.4 0.1 0.4 0.6 0.3 0.8 0 0.3-0.4 0.2-0.8 0.3-1.4q0.2-0.8 0.5-1.6c0.2-0.8-0.8-1.1-1.1-0.4z"/>
		</g>
		<g id="g414">
			<path id="path416" class="s7" d="m189.2 139.5q-0.1 1-0.2 2.1c0 0.5-0.1 0.9 0.3 1.3 0.1 0.1 0.4 0.2 0.5 0.1 0.8-0.7 0.5-2.5 0.6-3.5 0-0.9-1.2-0.9-1.2 0z"/>
		</g>
		<g id="g418">
			<path id="path420" class="s7" d="m200.5 133.7q-0.1 1.2-0.5 2.3c-0.2 0.7-0.5 1.3-0.4 2 0 0.3 0.4 0.4 0.6 0.3 1.3-0.7 1.4-3.1 1.5-4.5 0-0.7-1.1-0.8-1.2-0.1z"/>
		</g>
		<g id="g422">
			<path id="path424" class="s7" d="m93.5 166.9q-0.6 1.1-1.2 2.3c-0.3 0.7-0.6 1.2-0.5 2 0.1 0.4 0.5 0.5 0.8 0.3 0.6-0.3 0.8-1.1 1.1-1.8q0.5-1.2 0.9-2.3c0.2-0.7-0.7-1.1-1.1-0.5z"/>
		</g>
		<g id="g426">
			<path id="path428" class="s7" d="m107.8 162.4c0 1.1-0.4 2-0.3 3 0 0.5 0.6 0.9 0.9 0.5 0.8-1 0.7-2.4 0.5-3.6-0.1-0.7-1.2-0.5-1.1 0.1z"/>
		</g>
		<g id="g430">
			<path id="path432" class="s7" d="m121.6 163.6c-0.4 1-0.9 2.1-0.9 3.2 0 0.5 0.5 0.7 0.8 0.4 0.7-0.7 1-1.8 1.4-2.8 0.4-0.9-0.9-1.7-1.3-0.8z"/>
		</g>
		<g id="g434">
			<path id="path436" class="s7" d="m98.5 177.7q-0.2 1.1-0.6 2.2c-0.3 0.5-0.7 1.1-0.6 1.7 0 0.4 0.4 0.6 0.7 0.5 1.1-0.6 1.5-2.9 1.7-4.1 0.1-0.7-1-1.1-1.2-0.3z"/>
		</g>
		<g id="g438">
			<path id="path440" class="s7" d="m114.2 180c-0.1 1-0.4 2.1-0.2 3.1 0.1 0.3 0.5 0.4 0.7 0.2 0.6-0.9 0.6-2.2 0.7-3.3 0.1-0.8-1.1-0.8-1.2 0z"/>
		</g>
		<g id="g442">
			<path id="path444" class="s7" d="m102.8 193.3q0 0.9-0.2 1.8c-0.2 0.5-0.4 1-0.3 1.6 0 0.4 0.4 0.7 0.8 0.5 1.1-0.7 1.2-2.6 1.1-3.9-0.1-0.9-1.4-0.9-1.4 0z"/>
		</g>
		<g id="g446">
			<path id="path448" class="s7" d="m135.9 166.3c0 1.1-0.3 2.5 0.2 3.6 0.1 0.2 0.6 0.2 0.7 0 0.5-1.1 0.3-2.5 0.3-3.6 0-0.8-1.2-0.8-1.2 0z"/>
		</g>
		<g id="g450">
			<path id="path452" class="s7" d="m126.3 183.5c0.1 0.7 0 1.3-0.2 1.9-0.1 0.5-0.3 0.9-0.2 1.5 0.1 0.2 0.3 0.4 0.6 0.3 1.3-0.3 1.4-2.6 1.3-3.7-0.1-1-1.5-1-1.5 0z"/>
		</g>
		<g id="g454">
			<path id="path456" class="s7" d="m120.5 202.1c-0.1 0.9-0.5 2.5 0.2 3.1 0.1 0.1 0.3 0.2 0.4 0.1 0.9-0.6 0.6-2.3 0.6-3.2 0.1-0.9-1.2-0.9-1.2 0z"/>
		</g>
		<g id="g458">
			<path id="path460" class="s7" d="m140.9 199.3c-0.1 0.9-0.3 1.9 0.1 2.8 0.2 0.3 0.8 0.3 0.9 0 0.4-0.9 0.2-1.9 0.2-2.8-0.1-0.9-1.2-0.9-1.2 0z"/>
		</g>
		<g id="g462">
			<path id="path464" class="s7" d="m147.4 177.1c0.2 1 0.1 2 0.3 3 0.1 0.5 0.7 0.4 0.8 0 0.3-1 0-2.2-0.3-3.2-0.2-0.6-1-0.3-0.8 0.2z"/>
		</g>
		<g id="g466">
			<path id="path468" class="s7" d="m159.4 160.9c0 1-0.2 2.2 0 3.3 0.2 0.5 0.8 0.4 0.9 0 0.4-1.1 0.4-2.3 0.4-3.3 0.1-1-1.3-0.9-1.3 0z"/>
		</g>
		<g id="g470">
			<path id="path472" class="s7" d="m179.4 153.7q-0.1 1-0.1 2c-0.1 0.6-0.2 1.2 0 1.8 0.1 0.4 0.5 0.4 0.7 0.1 0.6-1 0.5-2.8 0.5-3.9 0-0.8-1.1-0.8-1.1 0z"/>
		</g>
		<g id="g474">
			<path id="path476" class="s7" d="m169.8 171.9c0 1-0.3 2.4 0.2 3.3 0.2 0.3 0.6 0.3 0.8 0 0.5-0.9 0.2-2.3 0.2-3.3 0-0.9-1.2-0.9-1.2 0z"/>
		</g>
		<g id="g478">
			<path id="path480" class="s7" d="m193.3 156.5c-0.2 1.3-0.8 3.4-0.1 4.6 0.1 0.2 0.5 0.2 0.6 0 0.3-0.6 0.3-1.2 0.3-1.8q0.1-1.3 0.3-2.5c0.1-0.7-1-1.1-1.1-0.3z"/>
		</g>
		<g id="g482">
			<path id="path484" class="s7" d="m180.5 178.2q0 1-0.2 1.9c-0.2 0.6-0.4 1.1-0.3 1.6 0 0.6 0.6 1 1 0.5 0.8-1 0.8-2.7 0.9-4 0.1-0.9-1.3-0.9-1.4 0z"/>
		</g>
		<g id="g486">
			<path id="path488" class="s7" d="m180.5 178.2q-0.3 1.1-0.6 2.2c-0.1 0.6-0.3 1.2-0.1 1.8 0.1 0.4 0.5 0.5 0.8 0.2 0.5-0.4 0.5-1 0.7-1.6q0.2-1.1 0.5-2.2c0.2-0.9-1-1.2-1.3-0.4z"/>
		</g>
		<g id="g490">
			<path id="path492" class="s7" d="m212.4 108c1.2-0.5 2.2-1.2 3.1-2.2 0.7-0.7 1.9-2 1.6-3.1 0-0.2-0.2-0.3-0.4-0.2-0.8 0.3-1.3 1.6-1.9 2.3-0.8 0.9-1.7 1.8-2.7 2.4-0.3 0.3-0.1 0.9 0.3 0.8z"/>
		</g>
		<g id="g494">
			<path id="path496" class="s7" d="m209.3 21.1c1.3-1 2.7-2 4.2-2.7 1.6-0.8 3.4-1.1 5-1.9 0.4-0.2 0.4-0.8-0.1-0.9-3.4-0.2-7.2 2.4-9.5 4.9-0.2 0.3 0.1 0.9 0.4 0.6z"/>
		</g>
		<g id="g498">
			<path id="path500" class="s7" d="m209.8 24.7c4.4-0.4 10-0.9 13.6-3.6 0.3-0.3 0.1-0.7-0.2-0.7-2.1 0.4-4.1 1.4-6.2 1.9-2.4 0.7-4.7 1.1-7.2 1.3-0.6 0.1-0.6 1.1 0 1.1z"/>
		</g>
		<g id="g502">
			<path id="path504" class="s7" d="m211 29.3c6.2 1.1 13.3 1.2 19.1-2 0.4-0.2 0.1-0.9-0.4-0.8-6.3 1.4-11.9 2.7-18.5 1.7-0.6-0.1-0.9 1-0.2 1.1z"/>
		</g>
		<g id="g506">
			<path id="path508" class="s0" d="m221.8 204.9l-27.3 13.1 9.6 31.8 33.9 0.4c0 0-7.8-29.1-16.2-45.3z"/>
		</g>
		<g id="g1096">
			<g id="g1098">
			</g>
			<g id="g1110">
				<g id="Clip-Path: g1108" clip-path="url(#cp1)">
					<g id="g1108" style="opacity: .2">
						<g id="g1106">
							<path id="path1104" class="s8" d="m99.1 112.1c-0.6 0-1 0-1.4 0.4-0.2 0.2-0.2 0.6 0 0.8 0.4 0.4 0.8 0.4 1.4 0.5 1 0.1 1-1.8 0-1.7z"/>
						</g>
					</g>
				</g>
			</g>
		</g>
		<g id="g1112">
			<g id="g1114">
			</g>
			<g id="g1126">
				<g id="Clip-Path: g1124" clip-path="url(#cp2)">
					<g id="g1124" style="opacity: .2">
						<g id="g1122">
							<path id="path1120" class="s8" d="m91.9 122.1c1 0 1-1.7 0-1.7-1 0-1 1.7 0 1.7z"/>
						</g>
					</g>
				</g>
			</g>
		</g>
		<g id="g1208">
			<g id="g1210">
			</g>
			<g id="g1222">
				<g id="Clip-Path: g1220" clip-path="url(#cp3)">
					<g id="g1220" style="opacity: .2">
						<g id="g1218">
							<path id="path1216" class="s8" d="m199.1 90.7c0.9 0 0.9-1.5 0-1.5-0.9 0-0.9 1.5 0 1.5z"/>
						</g>
					</g>
				</g>
			</g>
		</g>
		<g id="g1224">
			<g id="g1226">
			</g>
			<g id="g1238">
				<g id="Clip-Path: g1236" clip-path="url(#cp4)">
					<g id="g1236" style="opacity: .2">
						<g id="g1234">
							<path id="path1232" class="s8" d="m195.7 82.4c0.9 0 0.9-1.6 0-1.6-0.9 0-0.9 1.6 0 1.6z"/>
						</g>
					</g>
				</g>
			</g>
		</g>
		<g id="g1240">
			<g id="g1242">
			</g>
			<g id="g1254">
				<g id="Clip-Path: g1252" clip-path="url(#cp5)">
					<g id="g1252" style="opacity: .2">
						<g id="g1250">
							<path id="path1248" class="s8" d="m217.3 226c1 0 1-1.7 0-1.7-0.9 0-0.9 1.7 0 1.7z"/>
						</g>
					</g>
				</g>
			</g>
		</g>
		<g id="g1256">
			<g id="g1258">
			</g>
			<g id="g1270">
				<g id="Clip-Path: g1268" clip-path="url(#cp6)">
					<g id="g1268" style="opacity: .2">
						<g id="g1266">
							<path id="path1264" class="s8" d="m224.1 233.2c0.9 0 0.9-1.5 0-1.5-0.9 0-0.9 1.5 0 1.5z"/>
						</g>
					</g>
				</g>
			</g>
		</g>
		<g id="g1272">
			<g id="g1274">
			</g>
			<g id="g1286">
				<g id="Clip-Path: g1284" clip-path="url(#cp7)">
					<g id="g1284" style="opacity: .2">
						<g id="g1282">
							<path id="path1280" class="s8" d="m221.2 219.4c0 0 0 0 0 0-0.1 0-0.1 0 0 0z"/>
						</g>
					</g>
				</g>
			</g>
		</g>
	</g>
</svg>